<svg xmlns="http://www.w3.org/2000/svg" width="24" height="24" viewBox="0 0 24 24" fill="none" stroke="#f97316" stroke-width="2" stroke-linecap="round" stroke-linejoin="round">
  <rect x="6" y="6" width="12" height="12" rx="2" />
  <line x1="7" y1="4" x2="7" y2="6" />
  <line x1="10" y1="4" x2="10" y2="6" />
  <line x1="14" y1="4" x2="14" y2="6" />
  <line x1="17" y1="4" x2="17" y2="6" />
  <line x1="7" y1="18" x2="7" y2="20" />
  <line x1="10" y1="18" x2="10" y2="20" />
  <line x1="14" y1="18" x2="14" y2="20" />
  <line x1="17" y1="18" x2="17" y2="20" />
  <line x1="4" y1="7" x2="6" y2="7" />
  <line x1="4" y1="10" x2="6" y2="10" />
  <line x1="4" y1="14" x2="6" y2="14" />
  <line x1="4" y1="17" x2="6" y2="17" />
  <line x1="18" y1="7" x2="20" y2="7" />
  <line x1="18" y1="10" x2="20" y2="10" />
  <line x1="18" y1="14" x2="20" y2="14" />
  <line x1="18" y1="17" x2="20" y2="17" />
</svg>